<svg width="61" height="61" viewBox="0 0 61 61" fill="none" xmlns="http://www.w3.org/2000/svg">
<path d="M26.6875 7.62487C23.7786 7.62487 21.0641 8.43693 18.7499 9.85137C18.5107 8.57194 18.0747 7.33729 17.4574 6.19136C20.3599 4.58516 23.6312 3.76416 26.9481 3.80951C30.2651 3.85487 33.5127 4.76501 36.3702 6.44998C39.2276 8.13495 41.5959 10.5364 43.2409 13.417C44.8859 16.2976 45.7508 19.5577 45.75 22.8749H55.2851C56.8011 22.8759 58.2547 23.4789 59.3264 24.5512C60.398 25.6236 61 27.0776 61 28.5937V51.4687C61 52.9854 60.3975 54.44 59.325 55.5125C58.2525 56.585 56.798 57.1875 55.2812 57.1875H32.4062C30.8895 57.1875 29.435 56.585 28.3625 55.5125C27.29 54.44 26.6875 52.9854 26.6875 51.4687V41.9375C24.0355 41.9408 21.4121 41.3889 18.9862 40.3171C19.0358 39.0209 19.0625 37.6598 19.0625 36.2187V36.0853C21.3043 37.3815 23.9082 38.1249 26.6875 38.1249V28.5937C26.6875 27.077 27.29 25.6224 28.3625 24.5499C29.435 23.4774 30.8895 22.8749 32.4062 22.8749H41.9375C41.9375 18.8303 40.3308 14.9514 37.4709 12.0915C34.611 9.23156 30.7321 7.62487 26.6875 7.62487ZM45.3687 26.6874C44.6189 30.3496 42.81 33.7109 40.1667 36.3542C37.5235 38.9975 34.1622 40.8063 30.5 41.5562V51.4687C30.5 51.9743 30.7008 52.4592 31.0583 52.8167C31.4158 53.1741 31.9007 53.375 32.4062 53.375H55.2812C55.7868 53.375 56.2717 53.1741 56.6292 52.8167C56.9867 52.4592 57.1875 51.9743 57.1875 51.4687V28.5937C57.1875 28.0881 56.9867 27.6032 56.6292 27.2457C56.2717 26.8883 55.7868 26.6874 55.2812 26.6874H45.3687ZM41.4571 26.6874H32.4062C31.9007 26.6874 31.4158 26.8883 31.0583 27.2457C30.7008 27.6032 30.5 28.0881 30.5 28.5937V37.6446C33.1375 36.9612 35.5443 35.585 37.4709 33.6584C39.3975 31.7318 40.7738 29.325 41.4571 26.6874ZM9.84006 0.476411C10.1565 0.753206 10.3726 1.12685 10.4546 1.53919C10.5367 1.95153 10.4801 2.37943 10.2937 2.75629C10.2615 2.86783 10.2448 2.9833 10.2442 3.09942C10.2442 3.33961 10.3052 3.79711 10.8809 4.36898C11.1592 4.6473 11.3727 4.84555 11.6053 5.06286C11.7959 5.23824 11.9979 5.42124 12.2534 5.67286C12.749 6.14561 13.2713 6.70224 13.7403 7.39993C14.7124 8.86012 15.25 10.6863 15.25 13.3436C15.25 16.5957 14.0452 19.3674 12.1657 21.0678L12.4097 21.3499C13.4772 22.6614 14.0986 24.3618 14.4875 26.0393C15.25 29.3562 15.25 33.3441 15.25 36.1234V36.2187C15.25 46.8442 13.8051 52.8717 12.2153 56.3182C11.4146 58.0529 10.5644 59.1586 9.82863 59.8524C9.52948 60.1394 9.19961 60.3926 8.845 60.6073C8.68263 60.7051 8.51313 60.7905 8.33794 60.8628C8.33794 60.8628 7.90712 61 7.625 61C7.34288 61 6.91206 60.8628 6.91206 60.8628C6.73497 60.7947 6.5651 60.7091 6.405 60.6073C6.05039 60.3926 5.72052 60.1394 5.42137 59.8524C4.68556 59.1547 3.83538 58.0529 3.03475 56.3182C1.44494 52.8717 0 46.8442 0 36.2187V36.1234C0 33.3402 1.70432e-07 29.3562 0.7625 26.0393C1.15138 24.3618 1.77281 22.6614 2.84031 21.3499C2.91656 21.2546 3.00044 21.1593 3.08431 21.0678C1.20475 19.3674 0 16.5957 0 13.3436C0 12.1008 0.331688 10.6177 0.789188 9.249C1.24669 7.87649 1.88719 6.45824 2.62681 5.31449C3.5075 3.82761 4.74656 2.58092 5.70731 1.74216C6.23404 1.27893 6.78374 0.842482 7.35431 0.434473L7.46869 0.358223L7.503 0.331535L7.51444 0.323911L7.52206 0.320098C7.87165 0.087065 8.28844 -0.0239467 8.70763 0.00432106C9.12682 0.0325888 9.52492 0.198552 9.84006 0.476411ZM7.625 19.0624C9.10044 19.0586 11.4375 17.423 11.4375 13.3436C11.4375 11.2353 11.0219 10.2021 10.5644 9.51587C10.2863 9.11505 9.96541 8.74561 9.6075 8.41405L9.13475 7.97181C8.82594 7.68205 8.46375 7.34655 8.18162 7.06824C7.76465 6.6556 7.4067 6.18732 7.11794 5.67667C6.63265 6.18694 6.20557 6.74956 5.84456 7.35418C5.31081 8.17387 4.79231 9.29856 4.40725 10.4576C4.01075 11.6394 3.8125 12.6841 3.8125 13.3436C3.8125 17.4306 6.15719 19.0624 7.625 19.0624H7.63262H7.625ZM5.795 23.7594C5.25362 24.419 4.80375 25.4712 4.47587 26.8971C3.82013 29.7489 3.8125 33.3326 3.8125 36.2187C3.8125 46.562 5.22694 51.972 6.4965 54.7208C6.91587 55.6244 7.30856 56.2267 7.625 56.6271C8.07545 56.0387 8.45428 55.3987 8.7535 54.7208C10.0231 51.972 11.4375 46.562 11.4375 36.2187C11.4375 33.3326 11.4299 29.7489 10.7703 26.8971C10.4424 25.4712 9.99256 24.419 9.455 23.7594C9.24471 23.4745 8.96819 23.245 8.64935 23.0909C8.3305 22.9368 7.97892 22.8627 7.625 22.8749H7.61737C7.26467 22.8636 6.91451 22.9382 6.59704 23.0923C6.27957 23.2464 6.00432 23.4753 5.795 23.7594Z" fill="white"/>
</svg>
